<svg width="0" height="0">
  <defs>
    <clipPath id="myClip">
<!--   <path d="m330.55926,341.95785l39.69154,0c15.87661,0 28.70003,-12.78271 28.70003,-28.57791l0,-284.80204c0,-15.59165 -12.86413,-28.57791 -28.70003,-28.57791l-341.55076,0c-15.87662,0 -28.70003,12.78271 -28.70003,28.57791l0,284.84275c0,15.59165 12.86413,28.57791 28.70003,28.57791l330.87907,-0.09972l39.37172,57.05199l0,-362.31248l-68.39157,305.31951z"/> -->
      
      <path xmlns="http://www.w3.org/2000/svg" d="M0 30C0 13.4315 13.4315 0 30 0H345C361.569 0 375 13.4315 375 30V345C375 361.569 361.569 375 345 375H30C13.4315 375 0 361.569 0 345V30Z"/>
      <path xmlns="http://www.w3.org/2000/svg" d="M375 310H259L375 398V310Z"/>
    </clipPath>
  </defs>
</svg>
