<svg xmlns="http://www.w3.org/2000/svg" width="647" height="545" viewBox="0.28 -3.304 647 545">
    <path fill="#FFF" d="M299.049 101.326c35.381-16.24 76-20.57 114.051-12.45 36.75 7.681 70.84 27.141 96.439 54.551 13.99 15.069 25.511 32.399 33.939 51.159 5.7 13.38 10.34 27.312 12.66 41.71-19.13-3.75-38.021-8.84-56.391-15.39-8.72-3.15-17.359-6.63-25.51-11.07-1.29-.67-2.44-1.55-3.33-2.68-3.69-4.38-7.38-8.74-11.08-13.1-.931-1.71-2.931-1.062-4.479-1.142a87.814 87.814 0 0 1-.83-5.35c-3.63-3.7-3.551-8.96-3.721-13.79-1.5-14.65-.779-29.71-5.1-43.96-5.67-12.62-17.29-22.83-31.12-25.23-9.771-1.529-19.88-.77-29.38 1.95-17.66 4.95-33.801 14.061-49.11 23.97-13.829 9.091-26.97 19.2-39.689 29.771-15.729.87-30.27 7.54-44.09 14.59-9.06 4.41-18.1 9.29-28.05 11.37-4.95.63-9.93 1.01-14.8 2.189 18.611-38.228 50.842-69.589 89.591-87.098z" style="transform: translateX(-50.2px);"/>
    <path fill="#FFF" d="M360.399 134.686c13.931-8.01 28.75-15.58 44.931-17.431 10.26-1.38 21.819 1.65 28.229 10.25 5.229 5.721 5.811 13.811 6.521 21.15.92 7.37.51 14.84 1.649 22.2-2.87.55-5.71 1.37-8.63 1.6-1.5-.71-2.99-1.399-4.311-2.39-.51-2-.82-4.04-1.13-6.08-11.79 2.19-24.221 4.63-33.87 12.229-4.851 3.7-7.721 9.421-8.721 15.36-.01 1.79-.05 3.59.08 5.4 1.631 1.358 3.971 1 5.939 1.488-2.75 5.052-5.21 10.342-5.96 16.102v4c4.61-.72 8.53-3.36 12.841-4.95-.189 1.03-.561 3.09-.74 4.12-.09 1.4-.17 2.8-.239 4.2a41.88 41.88 0 0 0 3.25 6.38c6.21-1.352 11.579-4.94 17.51-7.062l-.681 3.44c.24.68.711 2.03.939 2.7a52.775 52.775 0 0 0 17.811-8.08c7.011-4.5 13.82-10.41 22.351-11.521 4.761 3 6.979 9.2 12.011 12.092 8.18 4.938 17.061 8.578 25.96 12 18.279 6.79 37.09 12.148 56.17 16.158 9.92 2.17 20.029 3.65 29.649 6.99 5.38 1.95 10.801 5.24 13.181 10.69 4.479 10.71 4.42 23.38-.859 33.79-4.729 8.72-13.171 15.84-23.051 17.738-39.561 9.15-79.761 15.302-119.979 20.65-11.95 1.32-23.87 2.76-35.851 3.771-27.619 2.471-55.351 3.859-83.101 3.521-9.09.13-18.26-.08-27.14-2.189-3.479-1.319-7.051-2.801-9.561-5.659-3.439-3.341-4.399-8.2-5.28-12.71-1.47-8.28-3.439-16.521-3.72-24.961-.31-7.341 2.181-14.351 3.57-21.471 4.31-21.479 7.689-43.17 13.18-64.41.729-2.6.319-5.35 1.04-7.948 2.891-12.08 6.3-24.021 9.42-36.041.37-1.03.51-2.271 1.38-3 14.393-11.616 29.272-22.706 45.212-32.116z" style="transform: translateX(-50.2px);"/>
    <path fill="#F8FBF9" d="M395.859 184.926c9.181-7.9 20.74-11.9 32.109-15.461l.82.601c1.319.99 2.811 1.68 4.311 2.39-12.631 4.99-24.801 11.07-37.261 16.45-.019-1.34-.008-2.651.021-3.98z" style="transform: translateX(-50.2px);"/>
    <path fill="#FFF" d="M232.359 199.306c23.921-4.82 43.23-22.87 67.801-25.4-2.841 11.61-6.28 23.07-9.07 34.7-.84 3.64-.7 7.45-1.83 11.03-6.39 24.81-9.6 50.3-15.55 75.21-1.61 7.479-.71 15.21.71 22.648.71 4.971 1.76 9.93 3.7 14.59-8.19.352-16.23 3.142-23.2 7.392-7.95 4.68-13.92 12.898-23.51 14.438-12.011.87-22.33-6.85-34.08-7.739-4.261-.021-8.23 2.109-12.521 1.939.78-.58 1.561-1.14 2.351-1.7 6.01-3.148 11.989-6.79 18.84-7.77 8.359-.95 16.77-1.54 25.069-2.92 4.54-.82 8.721-2.96 12.181-5.99 4.56-3.84 12.05-4.67 14.13-10.99.439-4.5-.5-11.76-6.13-12.358-4.8.688-8.75 3.898-12.45 6.81-6.16 4.85-11.72 10.5-18.37 14.71-2.99 2.062-6.77 1.46-10.189 1.51-5.061-.08-9.87-1.989-14.891-2.37-7.59.802-14.84 3.392-22.03 5.83-5.51 1.7-11.14 3.562-16.979 3.271-7.93-.23-15.49-3.12-22.5-6.65 4.82-.16 9.69.271 14.48-.52 16.21-2.33 30.88-10.19 46.67-14.08 5.04-1.48 10.47.04 15.43-1.891 7.45-2.58 14.47-8.811 15.49-16.971.51-3.16-.74-6.1-2.21-8.79-4.48-4.069-10.71-1.608-15.311.892-13.28 7.52-24.189 18.52-37.37 26.188-3.569 2.03-7.649 3.23-11.779 3.062-8.83-.24-17.29-3.052-25.971-4.4-8.01-1.49-16.18-1.2-24.279-.88 15.25-7.38 32.64-6.61 48.97-9.601 5.98-1.149 12.5-1.939 17.39-5.869 1.94-1.4 2.01-3.98 2.34-6.12-2.05-5.75-6.8-11.23-13.319-11.36-10.11.312-18.51 6.71-26.64 12-5.62 3.63-11.301 8.87-18.511 8.021-7.39-1-14.609-3.439-22.14-3.341l-.65-.43c-7.25-.13-14.489.641-21.609 1.97 6-3.75 12.06-7.658 18.939-9.58 8.13-2.369 16.74-1.42 25-2.92 13.771-3.898 22.65-16.188 34.96-22.738 3.681-1.79 7.86-3.28 11.99-2.37 10.39 1.68 16.56 11.818 26.51 14.55 8.88 2.18 18.17-1.19 25.35-6.4 3.9-2.71 7.091-6.6 8.15-11.31-1.79-4.98-8.01-5.95-12.62-5.521-7.729.69-12.27 7.771-18.79 11.04-9.72-1.068-16.819-8.47-25.739-11.608-5.74-1.45-12.4-.75-17.051 3.188-7.409 5.96-15.18 11.94-24.47 14.63-10.79 3.5-22.439 1.762-32.979-1.778 11.02-1.12 22.2-3.472 31.75-9.341 11.71-6.979 20.42-19.381 34.46-22.039 7.81-2.03 15.529 1.47 22.239 5.17 4.24 2.119 8.851 4.63 13.75 3.698 7.391-1.68 12.75-7.39 18.98-11.27 2.95-1.91 6.939-2.08 9.18-5.05 1.88-1.562 1.25-4.13 1.41-6.261-1.92-2.131-4.53-3.811-7.521-3.229-9.72.84-15.47 10.311-24.52 12.89-3.44.74-6.71-.84-9.92-1.84-5.33-1.85-10.91-3.22-16.6-2.96-5.21-.26-10.16 1.54-15.221 2.431 2.381-2.109 4.73-4.369 7.721-5.601 7.1-3.22 15.14-1.84 22.59-3.49 6.79-1.67 11.989-6.59 17.8-10.159 6.07-4.131 12.92-7.149 20.149-8.54 3.95-.964 8.07-.743 12.04-1.663z" style="transform: translateX(-50.2px);"/>
    <path fill="#EEFAF9" d="M402.479 198.946c8.41-5.98 16.5-12.79 26.149-16.72-2.18 2.47-4.64 4.661-7.239 6.649-9.92 7.682-19.979 15.17-30.28 22.33 2.06-5.37 7.221-8.599 11.37-12.259z" style="transform: translateX(-50.2px);"/>
    <path fill="#FDFDFC" d="M437.24 191.816c2.859-1 5.949-1.28 8.92-.58.229 5.41-4.96 8.57-8.41 11.9-10.779 8.6-23.33 14.618-36.04 19.778.75-5.29 2.551-10.33 4.439-15.29 10-5.918 20-12.119 31.091-15.808z" style="transform: translateX(-50.2px);"/>
    <path fill="#010102" d="M336 249.585c2.681-8.818 11.351-13.979 20.101-15.06 6.979-.42 14.561.67 20.08 5.31 3.79 2.91 5.239 7.67 6.55 12.062 2.141 0 4.29.05 6.439.2.36-5.65 5.2-9.92 10.221-11.762 3.109-1.27 6.069.5 8.789 1.83 2.312-1.12 4.36-3.25 7.15-2.858 2.391-.271 4.79 2.028 7.061.68 3.369-1.87 7.729-2.45 11.101-.26 3.529 1.648 4.729 5.66 5.649 9.13 7.08-2.47 15.569-2.99 21.819 1.85 1.83-.81 3.641-1.67 5.45-2.54 1.311-6.05 7.96-10.02 13.899-8.46 6.569 1.41 10.819 9.7 6.55 15.45 1.021 3.5 1.301 7.24-.04 10.71 2.641 2.62 5.511 5.79 4.891 9.83.49 5.47-3.561 9.82-7.739 12.7 2.68 4.08 1.029 8.97 2.579 13.34 1.011 4.2.23 9.05-3.149 12.021-4.641 4.961-12 4.229-18.13 5.351-1.12-.72-2.239-1.44-3.359-2.13-6.24 2.938-13.95 3.479-19.69-.892a19.577 19.577 0 0 1-7.96 4.562c-3.05 4.188-7.069 8.38-12.39 9.31-5.141.182-8.721-4.449-9.641-9.108-5.16 1.62-10.479.89-15.5-.841-4.391 3.521-10.489 3.939-15.699 2.189-2.23 4.35-5.37 8.34-9.852 10.53-9.56 4.779-22.699 3.18-29.56-5.49-5.729-7.07-4.79-18.13 1.96-24.22-1-2.19-1.771-4.471-2.189-6.83-1.351-.4-2.689-.811-4.021-1.2-1.28.67-2.561 1.34-3.83 2.021-6.771.021-13.62-.67-20.25 1.091-1.87-1.341-4.101-2.36-5.33-4.38-1.16-2.07-.92-4.5-.979-6.771-8.66-2.54-11.471-14.64-5.46-21.06 3.721-4.011 9.489-4.671 14.659-4.432 3.271-1.59 7.141-3.72 10.641-1.29 4.391 1.921 3.771 7.37 6.021 10.852 3.341 2.229 7.08-.91 10.681-.92-7.254-3.794-9.273-13.064-7.523-20.515z" style="transform: translateX(-50.2px);"/>
    <path fill="#F9FCFA" d="M352.379 242.076c5.86-1.74 12.591-1.61 17.939 1.57 5.65 3.14 7.479 11.47 3.61 16.67-1.61 2.14-4.29 2.97-6.641 3.979 2.87 7.57 7.3 16.15 15.641 18.592 4.819 1.31 8.601-3.45 13.279-3 2.609.068 2.41 3.329 2.63 5.188-4.329 6.66-13.729 7.82-20.489 4.49-6.78-3.47-11.149-10.28-13.891-17.17-1.09-2.75-1.97-5.562-2.899-8.36-.431.062-1.311.17-1.74.23.101 1.66.211 3.33.33 5 1.061.479 2.12.96 3.189 1.448-.271 1.23-.56 2.472-.869 3.7-1.939 3.392-4.881 6.12-8.301 7.98-.979-.931-2.21-1.642-2.851-2.852.811-2.278 2.61-4.198 2.689-6.72.141-4.34-.47-8.67-.39-13.01.109-2.58-1.729-4.58-3.09-6.55 2.119-2.86 5.729-2.36 8.859-2.29.311.54.63 1.08.96 1.63-.431 2.29-.62 4.608-.7 6.938 2.851-.01 6.33.36 8.189-2.33 2.92-3.26.21-8.318-3.56-9.448-5.801-1.972-14.171-.53-16.49 5.89.97 3.63 4.55 6.24 4.311 10.19-1.54.579-3.17 1.93-4.859 1.01-4.73-2.44-6.341-8.602-4.811-13.43 1.196-4.706 5.446-8.046 9.955-9.345z" style="transform: translateX(-50.2px);"/>
    <path fill="#F4FAF9" d="M426.059 245.266c1.54-.562 3.2-.19 4.8-.15 1.351 2.42 2.24 6.13-.29 8.09-2 .771-4.949.65-5.859-1.64-1.46-2.08-.141-4.66 1.349-6.3z" style="transform: translateX(-50.2px);"/>
    <path fill="#F8FCF9" d="M395.769 251.456c1.29-2.75 4.17-4.21 6.819-5.38 3.601 8.21 1.53 17.5 3.16 26.11.891 1.05 1.92 1.99 2.91 2.97.029.54.08 1.63.109 2.17-3.489 1.65-7.439 1.22-11.17.96-.03-.609-.08-1.84-.109-2.45.71-1.09 1.43-2.18 1.979-3.358-.141-5.92-.95-11.812-.841-17.74-.957-1.072-3.447-1.363-2.857-3.282zm13.731-1.76c2.069-1.78 4.181-3.68 6.939-4.25 2.141 4.77 1.75 10.13 2.261 15.23.38 4.5-.94 9.868 2.71 13.35h3.641c.479-.57 1.43-1.7 1.899-2.26.029-3.021.029-6.04-.11-9.052-.89-.22-2.67-.648-3.56-.868.84-3.61 4.06-5.73 7.26-7.052 2.181 5.08 1.149 10.75 2.2 16.07 1.069 1.11 2.149 2.22 3.239 3.33-.04.49-.109 1.45-.14 1.93-3.23.602-6.511.87-9.79.91-1.021-.77-2.04-1.51-3.051-2.27-2.449 4.52-8.409 3.14-12.5 2.25.87-2.41 2.88-4.54 2.551-7.262-.2-4.329-.5-8.658-.71-12.988-.15-1.04-.28-2.07-.391-3.102-2.118-.367-2.379-2.186-2.448-3.966z" style="transform: translateX(-50.2px);"/>
    <path fill="#F6FAF7" d="M473.58 248.106c2.061-3.92 9.45-2.08 8.37 2.67-1.36 2.34-4.12 1.2-6.271 1.33 2.319 3.14 6.779 6.02 5.271 10.53-1.79 4.198-7.03 4.54-10.851 5.8-.2.43-.601 1.29-.801 1.729 4.131 2.12 8.7-1.2 12.851.82 2.021.7 2.771 2.87 3.609 4.64-1.42 6.92-9.189 9.61-15.47 9.13-2.67-.47-6.2-.85-7.59-3.5-1.25-2.42 1.04-5.39 3.63-4.92 2.26 1.58 4.21 3.602 6.71 4.841 2.29-.869 6.43-1.25 5.68-4.671-1.239-1.72-3.55-1.5-5.39-1.35-2.771.22-5.55.22-8.33.16-.72-.72-1.431-1.44-2.141-2.15-.01-.92-.01-1.83-.01-2.729a158.31 158.31 0 0 1 3.34-3c-1.271-1.45-3.21-2.57-3.55-4.602-.729-2.26.561-4.358 1.409-6.35 3.051-1.66 6.391-2.59 9.82-3.06-.487-1.709-1.897-3.799-.286-5.318z" style="transform: translateX(-50.2px);"/>
    <path fill="#F8FBF9" d="M446.849 256.375c2.42-1.52 5.619-3.56 8.409-1.68 3.021 2.05 2.601 6.04 2.9 9.21-.13 2.7 2.779 4.021 2.97 6.64-2.51 2.67-5.01 7.182-9.37 5.57.79-5.24 2.21-10.95-.27-15.95-1.53.392-3.03.8-4.551 1.19-.399 2.108-1.149 4.22-.851 6.398.261 2.91 2.971 4.57 4.301 6.98-3.479 1.7-7.359 1.71-11.131 1.5l-1.569-1.93c.96-1 1.931-1.98 2.95-2.921.271-.819.561-1.619.84-2.431-.439-2.16-.641-4.35-.761-6.54l-2.979-.56c.02-1.54.399-3.011.96-4.42 1.71-1.15 3.409-2.32 5.159-3.432 1.08 1.222 1.819 2.65 2.54 4.12.113-.433.344-1.303.453-1.744z" style="transform: translateX(-50.2px);"/>
    <path fill="#030207" d="M468.059 260.496c.76-2.84 4.061-2.648 6.359-2.28a15.867 15.867 0 0 1 1.78 3.632c-1.61.97-3.33 1.71-5.061 2.42-1.208-.992-4.048-1.592-3.078-3.772z" style="transform: translateX(-50.2px);"/>
    <path fill="#F8FBF6" d="M380.689 259.215c4.391-2.158 10.391-.688 12.689 3.79 2.07 4.512 2.181 10.53-1.569 14.2-2.75 3.04-7.45 2.7-11.069 1.82-7.62-3.339-7.721-16.449-.051-19.81z" style="transform: translateX(-50.2px);"/>
    <path fill="#152028" d="M359.819 264.266c.431-.062 1.311-.17 1.74-.23.931 2.8 1.811 5.61 2.899 8.36-.67.67-1.34 1.34-1.989 2.02.311-1.229.6-2.47.869-3.7-1.069-.488-2.13-.97-3.189-1.448-.119-1.672-.23-3.342-.33-5.002z" style="transform: translateX(-50.2px);"/>
    <path fill="#020103" d="M381.919 264.416c2.141-2.398 6.601-.85 6.979 2.29.32 2.59.82 6.16-2 7.62-1.97.271-4.619.51-5.54-1.72-1.209-2.47-1.448-6.101.561-8.19z" style="transform: translateX(-50.2px);"/>
    <path fill="#F2FAF9" d="M319.269 268.166c1.439-1.608 3.221-2.64 5.431-2.2-.011 1.82.271 3.98-1.5 5.12-1.57.38-3.181.41-4.771.552.229 3.818.18 7.648.51 11.46.681.85 1.37 1.71 2.061 2.579-1.891 2.561-3.83 5.931-7.54 5.641.66-4.062 2.891-8.63.141-12.4-1.62 2.53-5.88 2.16-7.479-.188-2.29-2.61-1.811-7.21 1.13-9.16 3.477-2.525 8.047-.974 12.017-1.404z" style="transform: translateX(-50.2px);"/>
    <path fill="#030408" d="M308.359 276.045c.421-1.618.15-3.79 2.061-4.479 1.29-.271 2.601-.4 3.931-.4.09 1.95.22 3.91.399 5.88-2.01-.98-4.241-.85-6.391-1.001z" style="transform: translateX(-50.2px);"/>
    <path fill="#F2F9F8" d="M323.2 271.085c.729.271 2.189.802 2.93 1.062.37 2.08.391 4.21.551 6.33 2.25-1.142 4.561-1.551 6.779-.09.229 1.93.431 3.858.58 5.8.609.858 1.229 1.729 1.851 2.608a77.694 77.694 0 0 1-3.479 3.83l-2.87-.56c1.05-2.91 1.859-6.3-.09-9.05-.931.33-1.811.778-2.689 1.22.021 1.39.079 2.8.18 4.2.71 1.16 1.45 2.31 2.229 3.438-2.38.33-4.779.54-7.18.591-.051-.381-.15-1.149-.2-1.541.62-.948 1.24-1.88 1.83-2.828-.729-3.07-.681-6.24-.689-9.37-3.563-.829-.403-3.709.267-5.64z" style="transform: translateX(-50.2px);"/>
    <path fill="#F1FBF9" d="M339.819 277.166c3.061-.608 7.261-.34 7.979 3.45 1.2 4.32-4.56 3.78-7.26 3.9.141.438.431 1.318.58 1.76 2.311-.05 4.439-1.07 6.72-1.33.771 5.46-8.699 6.29-10.18 1.44-1.809-3.261-.368-6.87 2.161-9.22z" style="transform: translateX(-50.2px);"/>
    <path fill="#61A6C3" d="M339.219 280.736c1.88-.57 3.779-1.09 5.71-1.521.351 3.531-4.03 3.891-5.71 1.521z" style="transform: translateX(-50.2px);"/>
    <path fill="#F8FCF9" d="M360.389 286.386c2.09.31 3.979-2.37 5.949-.852 2.681 2.25 4.311 5.84 4.181 9.352-.88.729-1.891 1.25-2.88 1.8-2.521-2.102-5.051-4.3-8.189-5.38a336.2 336.2 0 0 0-3.66 1.33c-.16 1.5-1.83 3.51.2 4.408 5.199 3.012 11.55 3.682 16.311 7.592 2.819 3.77 3.8 8.47 3.35 13.108-3 11.53-19.149 14.66-27.47 7.021-5.2-4.29-5.25-14.16 1.01-17.512 3.28-2.028 8.07-2 10.561 1.25-.46 1.092-.909 2.19-1.359 3.29-2.229.762-4.96.88-6.5 2.88-.771 2.82.37 6.182 3.21 7.342 3.76 1.658 8.859 1.278 11.83-1.75 3.359-3.83 2.351-10.54-2.2-12.99-4.47-2.37-9.68-3.19-13.899-6.07-3.311-2.29-3.88-7.21-1.489-10.358 2.315-3.681 6.905-5.021 11.044-4.461z" style="transform: translateX(-50.2px);"/>
    <path fill="#F7FAF9" d="M464.979 291.406c2.729-2.438 6.83 0 9.62-2.32.51 0 1.54-.01 2.05-.01 1.359 2.142 2.41 4.47 3.261 6.88-2.9 2.61-5.851-.06-8.41-1.67-.46.062-1.399.16-1.859.22-.011.78-.021 1.57-.011 2.37 3.29 1.5 7.311 1.88 9.92 4.602 1.99 2.12.57 5-.01 7.42-2.63 2.26-5.99 2.88-9.359 2.279-1.21.591-2.49 1.75-3.921 1.141-2.38-2-3.92-4.95-3.819-8.09 3.63-1.91 6.431 1.63 9.66 2.729 2.38.96 1.851-1.989 2.13-3.27-3.391-1.09-6.83-2.102-10.01-3.73l-1.439-2.318c-.042-2.264.407-4.683 2.197-6.233z" style="transform: translateX(-50.2px);"/>
    <path fill="#F8FCF9" d="M425.349 294.776c2.771-1.64 6.181-3.42 9.351-1.64 6.109 3.438 6.85 12.71 2.909 18.068-1.949 3.07-6.561 3.98-9.47 1.771-1.71-.88-1.851-3.682-.32-4.79 1.431-.21 2.891-.3 4.36-.28 2.33-2.24 2.93-5.36 1.409-8.25l-2.239-1.56c-2.141.02-4.859.55-5.351 3.04-.37 3.34-.12 6.72.011 10.079-.051 1.931 1.92 2.881 2.81 4.391.461 1.568-1.05 2.64-1.84 3.77-1.931 1.852-3.989 4.57-7.021 3.762-1.22-2.75.5-5.61.42-8.42-.18-4.512-.771-8.99-.649-13.5-.971-.472-1.939-.932-2.891-1.392-.09-.56-.271-1.68-.35-2.24 1.96-2.118 4.1-4.5 7.18-4.738.421.479 1.261 1.448 1.681 1.929z" style="transform: translateX(-50.2px);"/>
    <path fill="#F8FBF9" d="M445.29 293.686c4.101-4.142 12.25-3.352 14.819 2.14 1.011 2.13 1.641 5.82-1.04 6.95-3.319 1.729-7.109 1.22-10.689 1.25.091.51.29 1.55.391 2.06 3.95 2.92 7.641-1.22 11.771-1.08.08 1.25.34 2.521.181 3.79-1.479 2.642-4.7 3.271-7.32 4.21-4.97.07-9.979-3.118-10.76-8.25-1.153-3.832-.113-8.171 2.647-11.07z" style="transform: translateX(-50.2px);"/>
    <path fill="#F9FDF8" d="M398.05 297.416c2.52-3.83 7.76-4.06 11.75-2.898 4.96 1.83 5.93 7.76 5.779 12.398-.87 2.71-1.99 5.771-4.75 7.102-2.67 1.56-5.83.96-8.761 1.068-6.389-3.15-8.399-12.09-4.018-17.67z" style="transform: translateX(-50.2px);"/>
    <path fill="#F7FCF8" d="M380.669 297.005c1.851-1.64 4.36-2.038 6.649-2.698 2.11.738 4.53 1.16 6.15 2.83 1.21 1.63.89 4.158-1.011 5.148-2.729-1.1-5.43-2.568-8.47-2.1-1.71 3.03-2.471 7.54.71 9.898 3.399 1.67 6.6-1.76 10.109-1.22.069 1.78.91 4.21-1.051 5.32-2.659 2.54-6.63 2.688-10.029 1.989-7.526-2.726-9.097-14.186-3.057-19.167z" style="transform: translateX(-50.2px);"/>
    <path fill="#03080A" d="M449.12 296.416c2.55-.58 6.29-1.198 6.479 2.48-2.689.77-5.471 1.148-8.261 1.29.572-1.27 1.171-2.52 1.782-3.77z" style="transform: translateX(-50.2px);"/>
    <path fill="#040304" d="M403.109 299.276c1.7-.78 3.58-.22 5.351.01 1.311 2.521 2.351 5.44 1.2 8.25-1.04 3.47-6.721 3.55-7.9.09-.411-2.78-1.01-6.251 1.349-8.35z" style="transform: translateX(-50.2px);"/>
    <path fill="#FFF" d="M581.399 328.356c7.07-1.62 12.2-7.15 17.66-11.37 9.899 1.03 19.311 5.71 26.239 12.83 6.061 6.76 10.24 15.62 9.851 24.85.569 12.261-5.909 24.052-15.34 31.58-15.939 13.09-41.141 13.36-56.87-.229-9.311-7.771-14.601-20.271-13.08-32.36.771-7.35 3.87-14.3 8.341-20.14 7.769-1.531 15.46-3.472 23.199-5.161z" style="transform: translateX(-50.2px);"/>
    <path fill="#FFF" d="M520.889 340.456c1.271-.148 2.59-.62 3.891-.3 7.771 6.32 13.319 15.44 14.56 25.46 3.091 19.58-10.96 39.17-29.569 44.72-12.561 4.08-26.989 2.4-37.96-5.08-8.601-5.59-14.971-14.579-17.021-24.67-2.391-10.118-.03-21.118 5.62-29.76.689-1.49 2.489-1.3 3.84-1.56 18.95-2.471 37.809-5.57 56.639-8.81zm-261.79 32.2c4.101-12.75 14.13-23.87 27.03-27.99 1.77 5.49 6.1 9.9 11.63 11.63 12.159 4.131 25.229 2.472 37.84 2.842 6.199 9.148 9.431 20.67 7.101 31.64-3.28 19.46-21.7 34.78-41.37 34.76-14.311.7-28.66-6.47-36.7-18.33-6.911-9.953-8.79-22.922-5.531-34.552zm108.32-14.37c21.011-.95 42.021-2.46 62.91-5 7.399 7.51 12.149 17.83 11.72 28.49-.109 12.54-7.01 24.49-17.189 31.63-9.579 6.84-22.069 9.54-33.601 7-14.949-2.95-27.68-14.84-31.21-29.74-.93-6.67-1.02-13.59.99-20.08 1.501-4.4 3.88-8.412 6.38-12.3z" style="transform: translateX(-50.2px);"/>
    <path fill="#FAFCFB" d="M237.12 366.666c1.55-.778 3.12-1.528 4.699-2.29-3.55 8.602-4.55 17.972-4.079 27.19a247.65 247.65 0 0 1-17.12-22.26c5.63.23 11.239-.56 16.5-2.64z" style="transform: translateX(-50.2px);"/>
    <path fill="#FFF" d="M388.189 436.424c22.859 2.94 46.841-9.67 57.061-30.398 6.55 8.86 16 15.439 26.5 18.74-.029.21-.109.64-.149.85-35.311 21.76-78.011 31.28-119.181 26.01-15.59-1.96-31-5.818-45.529-11.84 16.88-3.37 31.71-14.92 39.54-30.2 8.649 14.881 24.649 25.11 41.758 26.838z" style="transform: translateX(-50.2px);"/>
</svg>