<svg xmlns="http://www.w3.org/2000/svg" width="647" height="545" viewBox="0.28 -3.304 647 545">
    <path d="M271.33 20.826C310 4.466 352.559-2.224 394.41.646c40.97 3.08 81.25 15.48 116.641 36.41 31.72 18.69 59.579 43.91 81.31 73.64 25.37 34.62 42.301 75.41 48.7 117.87 4.91 33.66 3.91 68.34-4.141 101.438 5.24 10.25 7.86 22.052 6.091 33.512-2.021 17.25-13.08 33.028-28.479 41.02-3.511 2.41-8.711 2.45-11.101 6.28-28.051 44.938-69.511 81.479-117.86 103.21-10.09 4.71-20.6 8.44-31.149 11.96l-2.189.48c-50.819 15.6-106.29 15.05-157.04-.62-37.989-12.03-73.38-32.33-102.6-59.46-27.979-25.79-50.439-57.54-65.33-92.57-6.64-15.37-11.45-31.45-15.37-47.69-7-4.278-15.439-5.5-23.5-4.568-16.649 1.72-32.399 7.738-48.51 11.858 11.48-8.46 24-15.5 36.98-21.37-20.62.271-40.84 5.12-60.84 9.762-5.36 1.33-10.721 2.699-16.021 4.229 20.59-22.029 47.68-36.938 75.61-47.6-9.551-1.22-19.23-2.352-28.351-5.62-8.55-2.86-16.52-7.29-23.68-12.75 6.9-.21 13.83.229 20.71-.57 21.24.15 43.54-1 62.48-11.67 3.479-46.05 19.319-91.1 45.319-129.25 29.2-43.171 71.12-77.671 119.24-97.751z" style="transform: translateX(-50.2px);"/>
    <path fill="#F9FCFA" d="M345.299 10.256c34.07-3.5 68.9-1.19 101.82 8.56 69.63 19.84 129.75 70.28 161.51 135.32 15.7 31.52 24.841 66.329 26.45 101.51-.229 7.358 1.101 14.7.13 22.04-.22 14.488-2.17 28.88-4.84 43.108a118.064 118.064 0 0 0-5.939-5.238c2.93-18.78 5.061-37.852 3.84-56.87-.261-4.972-.42-9.94-.91-14.892-3.979-39.479-17.31-78.01-38.89-111.33-21.711-33.829-51.561-62.399-86.301-82.609-36-20.96-77.239-33.09-118.92-34.08-5.01-.74-10.09-.2-15.13-.37l-.67.49c-43.75.62-87.051 14.05-124.351 36.74-36.56 22.38-67.37 54.1-88.55 91.38-16.34 28.47-26.899 60.199-31.109 92.739-1.971 2.4-4.891 3.74-7.49 5.33 4.75-48.488 24.04-95.319 54.14-133.58 31.42-40.09 74.79-70.75 123.17-86.729 16.901-5.589 34.37-9.429 52.04-11.519z" style="transform: translateX(-50.2px);"/>
    <path fill="#FAFCFA" d="M123.57 336.816c2.91 2.91 5.76 5.88 8.72 8.74 2.15 1.84 2.49 4.81 3.479 7.318 14.261 40.32 38.88 76.9 70.891 105.28 28.52 25.4 62.79 44.38 99.59 54.7 41.931 11.87 86.95 12.67 129.25 2.148 59.96-14.51 113.811-52.108 148.561-103.01 2.939-.34 5.891-.66 8.859-.79-35.351 54.271-91.569 94.67-154.51 110.182-15.13 3.948-30.65 6.3-46.229 7.329-21.341 1.421-42.841.149-63.881-3.659-41.439-7.472-80.899-25.41-113.97-51.44-43.821-34.348-76.361-82.958-90.76-136.798z" style="transform: translateX(-50.2px);"/>
</svg>