<svg xmlns="http://www.w3.org/2000/svg" width="647" height="545" viewBox="0.28 -3.304 647 545"><path fill="#FCFDFC" d="M356.78 31.216c5.17-2.61 12.369-3 16.67 1.43 2.939 2.65 3.409 6.82 4.39 10.44-2.81.24-5.63.4-8.439.37-.96-1.78-1-4.61-3.22-5.35-1.79-.46-3.63.05-5.41.25-.141 1.5-.22 3-.26 4.51 5.079 1.87 10.779 2.93 14.76 6.9 4.45 4.2 4.101 11.38 1.439 16.46-3.97 7.46-15.101 8.489-21.3 3.35-3.311-3.13-3.939-7.81-4.62-12.07 3.021 0 6.04 0 9.061-.03.66 1.83.92 3.89 2.17 5.47 1.229 1.85 3.609 1.13 5.479 1.23 1.319-2.32 2.061-5.061 1.189-7.67-2.909-2.74-7.239-2.7-10.67-4.49-7.92-3.46-8.76-16.47-1.239-20.8z" style="transform: translateX(-50.2px);"/><path fill="#FBFDFA" d="M396.439 31.646c4.95-1 11.13-.85 14.78 3.21 3.01 3.06 3.39 7.62 3.35 11.68-2.609-.07-5.21-.29-7.789-.61-.851-1.86-1.36-3.84-2.131-5.73-1.71-.25-3.75-1.65-5.311-.37-2.021.93-2.279 4.08-.119 5 4.239 2.25 9.061 3.99 12.021 8 3.76 4.66 2.649 11.64-.53 16.3-5.109 7.23-17.55 6.851-22.42-.399-2.26-3.351-2.101-7.59-2.239-11.44 2.97.36 5.939.77 8.93.93.53 2.29.301 5.01 2.08 6.79 1.021.601 2.2.851 3.33 1.181.58-.32 1.72-.95 2.29-1.271 1.229-2.18 1.489-4.66 1.04-7.1-4.011-2.54-8.931-3.78-12.271-7.26-4.7-5.861-2.65-16.591 4.989-18.911zm-80.189 6.21c3.681-2.91 8.75-3.62 13.229-2.46 5.24 1.86 8.75 6.98 9.479 12.39-2.939.75-5.891 1.48-8.88 1.92-.46-1.45-.91-2.9-1.359-4.34-1.58-.36-3.15-.71-4.729-1.06-1.57 1.09-3.58 1.97-4 4.05.92 5.55 2.1 11.06 3.399 16.52.71 3.7 5.92 4.891 8.399 2.21 1.681-1.46 1.05-3.939 1.391-5.88 2.71-.85 5.46-1.7 8.29-2.08 1.909 2.62 1.75 6.22.979 9.23-1.96 5.27-7.431 8.14-12.58 9.46-6.801.95-14.479-3.67-15.54-10.74-1.2-6.18-2.471-12.35-3.521-18.55-.857-4.36 2.162-8.21 5.443-10.67zm139.99 21.05c2.22-4.65 6.449-9.25 12.029-9.01 7.74.05 16.5 6.42 15.2 14.92-1.12 5.85-4.511 10.91-6.62 16.42-2.399 5-4.149 10.34-7.03 15.1-2.729-.71-5.199-2.109-7.76-3.239.641-3.82 2.75-7.12 4.189-10.65 2.359-5.59 5.05-11.04 7.28-16.68.92-1.88-.271-3.69-.87-5.44-2.38-.35-5.681-1.16-6.96 1.58-4.051 8.89-7.881 17.88-11.939 26.76-3.311-.33-6.271-1.95-9.091-3.58 3.791-8.752 7.761-17.431 11.572-26.181z" style="transform: translateX(-50.2px);"/><path fill="#FAFDFA" d="M243.66 68.526c2.6-1.561 5.17-3.2 7.899-4.53 6.11 9.66 11.38 19.84 17.4 29.561 4.52-2.551 8.91-5.311 13.52-7.66 1.54 2.54 3 5.12 4.351 7.76-7.261 3.91-14.28 8.25-21.49 12.271-7.25-12.463-14.31-25.022-21.68-37.402z" style="transform: translateX(-50.2px);"/><path fill="#FBFDFA" d="M495.25 71.616c6.49-4.32 16.431-1.81 20.069 5.08 1.091 1.82 1.61 3.9 2.311 5.9-.2 2.81-.58 5.77-2.34 8.09-3.79 5.24-7.311 10.68-11.28 15.779-2.909 3.641-8.05 4.41-12.38 3.421-8.08-1.53-14.05-10.851-10.771-18.681 2.08-3.76 4.859-7.09 7.189-10.7 2.282-3.049 4.091-6.579 7.202-8.889z" style="transform: translateX(-50.2px);"/><path fill="#010101" d="M497.439 81.715c1.08-1.77 2.96-2.689 4.801-3.5 1.521.671 3.04 1.36 4.54 2.101.81 2.26 1.84 4.939.239 7.13-2.37 3.64-4.88 7.19-7.439 10.69-2.37 2.89-6.681 3.04-9.521.77-.399-1.12-.8-2.22-1.2-3.33 1.891-5.16 5.58-9.34 8.58-13.861z" style="transform: translateX(-50.2px);"/><path fill="#FBFDFB" d="M219.399 86.835c4.96-5.17 14.41-6.29 19.591-.84 6.869 7.45 13.949 14.73 20.64 22.37-2.18 2.01-4.29 4.1-6.47 6.1-7.15-6.8-13.29-14.579-20.4-21.409-1.49-1.591-3.8-.92-5.71-.98-1.23 1.89-2.59 4.561-.83 6.59 6.33 7.17 12.97 14.08 19.58 21-.03.61-.05 1.23-.07 1.851-2.25 1.8-4.279 3.85-6.41 5.79-5.96-6.601-12.22-12.931-18.109-19.591-1.65-1.68-3.45-4.029-6.13-3.27-2.75.77-4.44 4.5-2.12 6.67 6.57 7.36 13.39 14.5 20.18 21.67-2.01 2.44-4.43 4.48-6.84 6.521-6.81-7.07-13.39-14.37-20.16-21.471-3.939-3.76-4.63-9.92-2.479-14.79 1.739-5.1 6.989-8.029 12.189-8.27.748-2.811 1.458-5.78 3.548-7.941z" style="transform: translateX(-50.2px);"/><path fill="#FBFDFB" d="M527.229 92.696c1.689-1.7 3.16-4.15 5.891-3.98 4.41 5.37 11.489 8.9 13.359 16.03.641 3.891-.21 8.24-3 11.15-4.08 4.59-8.261 9.1-12.59 13.46-3.46 3.64-9.12 3.939-13.641 2.49-5.689-3.07-10.05-8.021-14.75-12.37 8.011-9.141 16.631-17.721 24.731-26.78z" style="transform: translateX(-50.2px);"/><path fill="#010001" d="M532.429 101.526c2.561 1.54 4.659 3.84 4.811 6.99-4.54 4.91-9.07 9.84-13.7 14.67-1.431-.03-2.87-.05-4.29-.08-1.21-1.18-2.431-2.36-3.641-3.521a815.375 815.375 0 0 0 16.82-18.059z" style="transform: translateX(-50.2px);"/><path fill="#FBFDFB" d="M526.219 143.136c11.67-8.44 23.3-16.931 34.989-25.341 4.17 6.011 8.58 11.851 12.82 17.811-2.41 1.7-4.681 3.62-7.29 5-2.86-3.24-5.25-6.87-7.75-10.391-1.86 1.301-3.74 2.57-5.62 3.83.109 2.92 2.521 4.91 3.899 7.311-2.21 1.649-4.45 3.28-6.75 4.81-1.529-2.13-3-4.3-4.72-6.27-1.99 1.16-3.851 2.51-5.73 3.819l-1.319 1.641c2.54 3.43 5.08 6.859 7.471 10.41-2.37 1.8-4.801 3.51-7.311 5.109-4.149-5.969-8.839-11.569-12.689-17.739z" style="transform: translateX(-50.2px);"/><path fill="#FCFDFA" d="M185.189 122.556c.94-1.271 1.71-2.73 3.021-3.66 2.609 1.16 4.689 3.22 7 4.88-1.82 2.53-3.69 5.01-5.37 7.65 9.229 6.609 18.34 13.38 27.59 19.949-1.37 2.601-3.18 4.92-4.95 7.25-9.41-6.66-18.63-13.58-28.05-20.22-1.6 2.37-3.12 4.81-4.96 7-2.93-.15-4.97-3.03-7.42-4.42 3.99-6.409 8.879-12.199 13.139-18.429z" style="transform: translateX(-50.2px);"/><path fill="#FCFEFB" d="M161.75 160.056c1.57-3.051 3.15-6.101 5.06-8.95 12.351 6.72 25.021 12.939 37.17 20.01.15 3.38-2.71 6.4-4.3 9.311-5.11-2.44-9.79-5.801-15.13-7.7-.79 1.739-1.6 3.489-2.39 5.25 4.819 2.88 10.159 4.88 14.729 8.2-1.47 2.979-3.08 5.891-4.64 8.819-12.67-6.37-25.09-13.25-37.63-19.84-.47-1.9 1.17-3.65 1.84-5.36.89-1.25 1.25-3.229 2.82-3.779 5.08 2.27 9.779 5.33 14.859 7.63.94-1.75 1.9-3.49 2.92-5.2-5.079-2.841-10.278-5.471-15.308-8.391z" style="transform: translateX(-50.2px);"/><path fill="#F6FCF8" d="M543.37 164.816c1.13-3.08 4.949-3.271 7.38-1.66 1.061 2.18 1.149 4.49-.061 6.63-1.22.48-2.43.96-3.641 1.46-2.229-1.25-5.518-3.5-3.678-6.43z" style="transform: translateX(-50.2px);"/><path fill="#FCFDFB" d="M553.969 178.476c1.67-3.94 5.46-6.34 9.229-7.99 1.29 2.97 2.649 5.91 3.92 8.9-2.59 1.39-5.011 3.439-4.45 6.68 1.5.38 3.07 1.7 4.66.89 9.47-3.81 18.521-8.58 27.88-12.64 1.351 3.14 2.88 6.189 4.141 9.37-6.811 3.29-13.74 6.34-20.551 9.63-4.699 1.89-9.58 4.7-14.819 3.71-8.04-1.34-13.529-11.09-10.01-18.55z" style="transform: translateX(-50.2px);"/><path fill="#FBFEFB" d="M584.99 205.516c2.189-4.062 6.979-5.65 11.29-6.13 8.34.118 13.06 9.96 11.14 17.229-1.3 4.97-6.13 7.49-10.529 9.24-.761-2.71-1.45-5.44-2.149-8.16 1.51-1.271 4.35-1.82 4.34-4.21.05-1.44-.25-2.85-.399-4.271-1.41-.43-2.83-.818-4.25-1.13l-1.351 2.341c-.21 5.899-.59 12.671-5.319 16.891-3.461 3.52-8.851 3.43-13.381 2.76-7.88-2.1-11.51-11.91-8.659-19.109 2.029-4.391 6.689-6.461 10.979-8.029.891 2.91 1.63 5.858 2.33 8.818-2.25 1.4-6.189 2.472-5.561 5.892-.37 1.8 1.42 2.64 2.449 3.76 2.271-.24 5.221.11 6.591-2.189 1.178-4.493.458-9.424 2.479-13.703z" style="transform: translateX(-50.2px);"/><path fill="#FBFDFB" d="M192.149 399.706c8.11-5.05 15.73-10.88 23.9-15.85 1.93 2.83 3.83 5.68 5.58 8.63-7.37 4.8-14.58 9.82-21.95 14.6-3.479 2.12-7.33 4.33-11.57 3.812-7.529-.25-13.55-8.01-12.39-15.352.83-4.51 4.04-8.47 8.22-10.34 1.62 2.57 3.49 4.97 5.051 7.58-1.46 2.15-4.521 4.12-3.181 7.102 1.611 2.278 4.441.898 6.34-.182z" style="transform: translateX(-50.2px);"/><path fill="#FCFDFB" d="M214.78 408.217c3.18-2.972 6.8-6.541 11.55-6 7.229.979 13.13 7.35 14.27 14.459.37 4.351-2.3 8.189-5.55 10.801-7.19 6.38-13.84 13.37-21.28 19.47-1.859-1.9-3.739-3.771-5.59-5.67 3.42-4.56 8.04-8.09 12.26-11.88-2.08-2.562-4.29-5-6.54-7.392-4.5 3.421-8.319 7.632-12.619 11.28-1.95-1.74-3.79-3.59-5.62-5.45-.04-.358-.12-1.1-.17-1.47 6.278-6.209 13.018-11.941 19.289-18.148z" style="transform: translateX(-50.2px);"/><path fill="#020304" d="M224.16 411.996c3.81-.25 8.199 3.312 6.67 7.38-1.34 1.592-2.99 2.892-4.561 4.25-2.33-2.25-4.59-4.568-6.72-7.01a692.83 692.83 0 0 1 4.611-4.62z" style="transform: translateX(-50.2px);"/><path fill="#FBFDFB" d="M250.25 420.656c2.359 1.562 4.6 3.3 6.88 4.99-3 7.01-5.84 14.1-9.09 21-.11.648-.351 1.938-.471 2.58 6.381-5.57 13.07-10.761 19.61-16.142 2.16 1.79 4.39 3.49 6.67 5.131-11.359 9.591-23.06 18.779-34.51 28.279-2.16-1.64-4.34-3.24-6.54-4.82 5.72-13.718 11.71-27.308 17.451-41.018z" style="transform: translateX(-50.2px);"/><path fill="#FBFDF9" d="M458.979 449.967c7.979-4.462 15.729-9.312 23.521-14.08 1.609 2.5 3.149 5.05 4.53 7.698-2.53 1.54-5.181 2.881-7.591 4.602.221 1.31.931 2.45 1.601 3.59 5.061 8.41 10.279 16.74 15.17 25.27.229.16.7.48.931.642a133.765 133.765 0 0 0-7.479 4.688c-6.689-9.398-11.88-19.778-18.229-29.408-2.71 1.578-5.36 3.26-8.16 4.68-1.434-2.573-2.884-5.123-4.294-7.682z" style="transform: translateX(-50.2px);"/><path fill="#FBFDFA" d="M279.859 445.516c8.08-2.38 17.99 2.738 20 11.1.811 4.42-1.869 8.3-3.72 12.07-3.791 7.688-7.82 15.238-11.72 22.87-2.62-1.15-5.15-2.48-7.65-3.852 2.511-5.1 5.12-10.14 7.66-15.22-2.96-1.5-5.8-3.311-8.979-4.32-2.351 4.94-5.11 9.682-7.381 14.67-2.729-.76-5.25-2.068-7.789-3.27.189-2.3 1.21-4.38 2.289-6.37 3.461-6.87 7.131-13.63 10.5-20.55 1.37-3.059 3.431-6.078 6.79-7.128z" style="transform: translateX(-50.2px);"/><path fill="#020304" d="M282.099 455.217c.57-.222 1.69-.65 2.25-.87 2.67.56 6.59 1.75 6.54 5.108-.649 2.13-1.85 4.04-2.89 6-2.96-1.45-5.92-2.898-8.811-4.488a150.209 150.209 0 0 1 2.911-5.75z" style="transform: translateX(-50.2px);"/><path fill="#FCFEFC" d="M428.339 460.846c7.061-1.95 14.061-7.552 21.631-4.74 7.279 2.09 11.42 11.26 7.949 18.05-2.199 4.43-6.59 7.11-11.109 8.69 1.88 5 3.939 9.938 5.62 15.02-2.439 1.07-4.92 2.021-7.33 3.13-.601.021-1.2.04-1.79.07-4-10.19-7.811-20.45-11.76-30.66-1.211-3.14-2.731-6.2-3.211-9.56z" style="transform: translateX(-50.2px);"/><path fill="#FAFCF9" d="M313.019 458.456c4.75-1.41 10.029-.398 14.141 2.3 4.42 3.45 5.279 9.79 3.68 14.9-2.609-.67-5.199-1.4-7.739-2.26-.271-2.142.189-5.16-2.17-6.29-1.431-1.04-3.24-.72-4.87-.83-.5 1.21-.99 2.439-1.471 3.67 4.49 3.99 10.58 6.72 12.87 12.71 2.54 7.71-2.979 16.74-10.93 18.26-1.171-.028-2.32-.04-3.471-.04-4.109-1.028-8.71-2.479-10.931-6.42-2.369-3.818-1.67-8.529-1.04-12.738 2.931.63 5.87 1.289 8.69 2.35.199 2.83-.131 5.9 2 8.14 1.039 0 3.109.012 4.14.012 1.351-1.882 3.021-4 2.7-6.45-3.17-4.3-8.87-6-11.58-10.722-2.449-5.874-.048-13.912 5.981-16.592z" style="transform: translateX(-50.2px);"/><path fill="#FBFEFA" d="M412.009 463.576c3.17-.67 6.34-1.358 9.55-1.81 2.909 14.06 5.37 28.21 8.351 42.26-2.609.62-5.229 1.18-7.88 1.6-.32.2-.971.602-1.29.812-1.301-3.521-1.78-7.25-2.54-10.892-2.061-10.66-4.17-21.3-6.191-31.97z" style="transform: translateX(-50.2px);"/><path fill="#020204" d="M440.439 466.467c2.591-1.07 5.341-1.842 8.17-1.24 1.109 1.99 1.95 4.34.939 6.568-1.689 1.65-4.039 2.302-6.26 2.892-.969-2.741-2.008-5.451-2.849-8.22z" style="transform: translateX(-50.2px);"/><path fill="#FCFEFD" d="M342.549 471.186c4.641-7.25 16.4-8.25 22.311-1.98 1.801 1.74 2.631 4.16 3.649 6.392-.01 2.27-.02 4.55-.06 6.84-2.971.108-5.94-.17-8.891-.47-.029-1.53-.069-3.062-.061-4.57-1.95-2.12-4.95-3.352-7.71-2.08-2.45 1.74-2.021 5.03-2.58 7.63-.43 4.25-1.47 8.44-1.43 12.75.369.55 1.13 1.65 1.5 2.2 2.279 1.34 4.819 1.04 7.13-.07.64-1.52 1.279-3.03 1.909-4.54 2.931.32 5.851.78 8.79 1.102-.01 4.39-1.479 9.358-5.609 11.568-6.431 3.48-15.689 2.94-20.33-3.25-3.739-4.108-2.84-10.04-1.899-15.029 1.191-5.473 1.131-11.283 3.281-16.493z" style="transform: translateX(-50.2px);"/><path fill="#FDFEFC" d="M375.429 467.096c5.609-.79 11.279-1.19 16.949-1.19 2.891-.1 5.5 1.28 7.99 2.6 4.09 5.012 4.84 12.392 1.75 18.092-1 1.988-2.82 3.408-3.87 5.358 2.37 5.562 5.99 10.512 8.75 15.91-3.21.05-6.399.352-9.59.561-3.58-5.369-6.431-11.209-10.4-16.301.051 5.722 1.04 11.38 1.16 17.11-3.03.26-6.04.68-9.08.78-.38-3.062-.479-6.15-.84-9.21-.601-7.341-1.271-14.682-1.931-22.021-.447-3.889-.628-7.789-.888-11.689z" style="transform: translateX(-50.2px);"/><path fill="#010204" d="M385.609 474.906c3.101-.938 6.28-.39 8.95 1.4.359 1.198.739 2.42 1.12 3.63-.761 1.43-1.351 3.148-2.87 3.97-2.04.6-4.141.94-6.24 1.28-.69-3.391-.93-6.83-.96-10.28z" style="transform: translateX(-50.2px);"/></svg>